# xmcd CD database file
# Copyright (C) 1993-1996 Ti Kan
#
# Track frame offsets:
#  150
#  26583
#  43912
#  71438
#  108679
#  135412
#  151768
#  168477
#  186888
#  205766
#  228050
#  247136
#  268404
#  291188
#  312279
#  338052
#
# Disc length: 4771 seconds
#
# Revision: 3
# Processed by: cddbd v1.5.2PL0 Copyright (c) Steve Scherf et al.
# Submitted via: Advanced CD Ripper Pro 2.0
#
DISCID=e912a110
DTITLE=Dire Straits - Sultans Of Swing
DYEAR=1998
DGENRE=Rock
TTITLE0=Sultans of swing
TTITLE1=Lady writer
TTITLE2=Romeo and Juliet
TTITLE3=Tunnel of love
TTITLE4=Private investigations
TTITLE5=Twisting by the pool
TTITLE6=Love over gold (live)
TTITLE7=So far away
TTITLE8=Money for nothing
TTITLE9=Brothers in arms
TTITLE10=Walk of life
TTITLE11=Calling Elvis
TTITLE12=Heavy fuel
TTITLE13=On every street
TTITLE14=Your latest trick (live)
TTITLE15=Local hero - Wild theme (live)
EXTD=
EXTT0=
EXTT1=
EXTT2=
EXTT3=
EXTT4=
EXTT5=
EXTT6=
EXTT7=
EXTT8=
EXTT9=
EXTT10=
EXTT11=
EXTT12=
EXTT13=
EXTT14=
EXTT15=
PLAYORDER=
